<svg id="visual" viewBox="0 0 2000 1200" width="2000" height="1200" xmlns="http://www.w3.org/2000/svg" xmlns:xlink="http://www.w3.org/1999/xlink" version="1.1"><g stroke-width="0.5" stroke-linejoin="bevel"><path d="M1032.7 495.3L858.3 407L903.3 533.3Z" fill="#a9c1df" stroke="#FFFFFF"></path><path d="M1032.7 495.3L1029.7 334L858.3 407Z" fill="#98b4e0" stroke="#FFFFFF"></path><path d="M812 302.7L798 397L858.3 407Z" fill="#a3bddf" stroke="#FFFFFF"></path><path d="M858.3 407L780 469.3L903.3 533.3Z" fill="#a0bbdf" stroke="#FFFFFF"></path><path d="M798 397L780 469.3L858.3 407Z" fill="#b3c8dd" stroke="#FFFFFF"></path><path d="M780 469.3L890.3 616.7L903.3 533.3Z" fill="#9db8e0" stroke="#FFFFFF"></path><path d="M903.3 533.3L890.3 616.7L1032.7 495.3Z" fill="#b3c8dd" stroke="#FFFFFF"></path><path d="M970.3 246.7L812 302.7L858.3 407Z" fill="#9db8e0" stroke="#FFFFFF"></path><path d="M798 397L695.7 492.3L780 469.3Z" fill="#9bb6e0" stroke="#FFFFFF"></path><path d="M1029.7 334L970.3 246.7L858.3 407Z" fill="#a9c1df" stroke="#FFFFFF"></path><path d="M1211 222.7L1063.7 247.7L1029.7 334Z" fill="#9db8e0" stroke="#FFFFFF"></path><path d="M1029.7 334L1063.7 247.7L970.3 246.7Z" fill="#b0c6de" stroke="#FFFFFF"></path><path d="M780 469.3L827 658.7L890.3 616.7Z" fill="#9db8e0" stroke="#FFFFFF"></path><path d="M1191 605.3L1194 472L1032.7 495.3Z" fill="#9db8e0" stroke="#FFFFFF"></path><path d="M1032.7 495.3L1194 472L1029.7 334Z" fill="#b0c6de" stroke="#FFFFFF"></path><path d="M1170 632.7L1032.7 495.3L1098.7 726.7Z" fill="#a6bfdf" stroke="#FFFFFF"></path><path d="M608.7 436L695.7 492.3L798 397Z" fill="#acc4de" stroke="#FFFFFF"></path><path d="M780 469.3L697.7 636.7L827 658.7Z" fill="#98b4e0" stroke="#FFFFFF"></path><path d="M1060.7 739L1032.7 495.3L890.3 616.7Z" fill="#b7cadd" stroke="#FFFFFF"></path><path d="M1170 632.7L1191 605.3L1032.7 495.3Z" fill="#a0bbdf" stroke="#FFFFFF"></path><path d="M1037.7 145.3L925.3 152.3L970.3 246.7Z" fill="#b0c6de" stroke="#FFFFFF"></path><path d="M970.3 246.7L925.3 152.3L812 302.7Z" fill="#b3c8dd" stroke="#FFFFFF"></path><path d="M989.3 827L1060.7 739L890.3 616.7Z" fill="#a9c1df" stroke="#FFFFFF"></path><path d="M1063.7 247.7L1037.7 145.3L970.3 246.7Z" fill="#a0bbdf" stroke="#FFFFFF"></path><path d="M1211 222.7L1037.7 145.3L1063.7 247.7Z" fill="#a9c1df" stroke="#FFFFFF"></path><path d="M695.7 492.3L697.7 636.7L780 469.3Z" fill="#a9c1df" stroke="#FFFFFF"></path><path d="M827 658.7L989.3 827L890.3 616.7Z" fill="#b3c8dd" stroke="#FFFFFF"></path><path d="M1060.7 739L1098.7 726.7L1032.7 495.3Z" fill="#98b4e0" stroke="#FFFFFF"></path><path d="M1363.3 701.7L1390.3 488.3L1191 605.3Z" fill="#acc4de" stroke="#FFFFFF"></path><path d="M880.3 0L871 137.3L925.3 152.3Z" fill="#b7cadd" stroke="#FFFFFF"></path><path d="M925.3 152.3L871 137.3L812 302.7Z" fill="#b3c8dd" stroke="#FFFFFF"></path><path d="M812 302.7L675.7 274.7L798 397Z" fill="#98b4e0" stroke="#FFFFFF"></path><path d="M871 137.3L675.7 274.7L812 302.7Z" fill="#9db8e0" stroke="#FFFFFF"></path><path d="M695.7 492.3L531.3 630.7L697.7 636.7Z" fill="#98b4e0" stroke="#FFFFFF"></path><path d="M675.7 274.7L608.7 436L798 397Z" fill="#b3c8dd" stroke="#FFFFFF"></path><path d="M1409.7 428L1211 222.7L1194 472Z" fill="#b7cadd" stroke="#FFFFFF"></path><path d="M1194 472L1211 222.7L1029.7 334Z" fill="#a3bddf" stroke="#FFFFFF"></path><path d="M820 853L989.3 827L827 658.7Z" fill="#a9c1df" stroke="#FFFFFF"></path><path d="M1089.7 923.3L1210 857L1098.7 726.7Z" fill="#a0bbdf" stroke="#FFFFFF"></path><path d="M1211 222.7L1211 117.3L1037.7 145.3Z" fill="#b3c8dd" stroke="#FFFFFF"></path><path d="M1037.7 145.3L880.3 0L925.3 152.3Z" fill="#98b4e0" stroke="#FFFFFF"></path><path d="M600.7 125.3L565.3 269.7L675.7 274.7Z" fill="#b3c8dd" stroke="#FFFFFF"></path><path d="M675.7 274.7L565.3 269.7L608.7 436Z" fill="#a9c1df" stroke="#FFFFFF"></path><path d="M709.7 858L820 853L827 658.7Z" fill="#b3c8dd" stroke="#FFFFFF"></path><path d="M1363.3 701.7L1191 605.3L1170 632.7Z" fill="#a3bddf" stroke="#FFFFFF"></path><path d="M1191 605.3L1390.3 488.3L1194 472Z" fill="#b3c8dd" stroke="#FFFFFF"></path><path d="M1211 222.7L1368.3 196.3L1211 117.3Z" fill="#a0bbdf" stroke="#FFFFFF"></path><path d="M1210 857L1170 632.7L1098.7 726.7Z" fill="#a3bddf" stroke="#FFFFFF"></path><path d="M1390.3 488.3L1393.7 472.3L1194 472Z" fill="#98b4e0" stroke="#FFFFFF"></path><path d="M1099.7 0L880.3 0L1037.7 145.3Z" fill="#a3bddf" stroke="#FFFFFF"></path><path d="M871 137.3L600.7 125.3L675.7 274.7Z" fill="#b3c8dd" stroke="#FFFFFF"></path><path d="M565.3 269.7L501.3 366L608.7 436Z" fill="#98b4e0" stroke="#FFFFFF"></path><path d="M608.7 436L531.3 630.7L695.7 492.3Z" fill="#b7cadd" stroke="#FFFFFF"></path><path d="M697.7 636.7L709.7 858L827 658.7Z" fill="#a6bfdf" stroke="#FFFFFF"></path><path d="M464 525.3L531.3 630.7L608.7 436Z" fill="#a6bfdf" stroke="#FFFFFF"></path><path d="M1390.3 488.3L1406.3 464L1393.7 472.3Z" fill="#b7cadd" stroke="#FFFFFF"></path><path d="M1393.7 472.3L1409.7 428L1194 472Z" fill="#b7cadd" stroke="#FFFFFF"></path><path d="M1406.3 464L1409.7 428L1393.7 472.3Z" fill="#98b4e0" stroke="#FFFFFF"></path><path d="M880.3 0L826 0L871 137.3Z" fill="#b3c8dd" stroke="#FFFFFF"></path><path d="M1211 117.3L1099.7 0L1037.7 145.3Z" fill="#a0bbdf" stroke="#FFFFFF"></path><path d="M826 0L600.7 125.3L871 137.3Z" fill="#a9c1df" stroke="#FFFFFF"></path><path d="M565.3 269.7L466 200.3L501.3 366Z" fill="#98b4e0" stroke="#FFFFFF"></path><path d="M559.3 776L709.7 858L697.7 636.7Z" fill="#b7cadd" stroke="#FFFFFF"></path><path d="M820 853L920.3 929.3L989.3 827Z" fill="#a3bddf" stroke="#FFFFFF"></path><path d="M1089.7 923.3L1098.7 726.7L1060.7 739Z" fill="#b7cadd" stroke="#FFFFFF"></path><path d="M776 988.3L920.3 929.3L820 853Z" fill="#acc4de" stroke="#FFFFFF"></path><path d="M1089.7 923.3L1060.7 739L989.3 827Z" fill="#acc4de" stroke="#FFFFFF"></path><path d="M1390.3 488.3L1461.7 601.7L1406.3 464Z" fill="#b3c8dd" stroke="#FFFFFF"></path><path d="M1337.3 759L1363.3 701.7L1170 632.7Z" fill="#b0c6de" stroke="#FFFFFF"></path><path d="M1401.3 221.7L1368.3 196.3L1211 222.7Z" fill="#9db8e0" stroke="#FFFFFF"></path><path d="M1211 117.3L1162 0L1099.7 0Z" fill="#a6bfdf" stroke="#FFFFFF"></path><path d="M501.3 366L464 525.3L608.7 436Z" fill="#a0bbdf" stroke="#FFFFFF"></path><path d="M464 525.3L474.3 586.3L531.3 630.7Z" fill="#b3c8dd" stroke="#FFFFFF"></path><path d="M531.3 630.7L559.3 776L697.7 636.7Z" fill="#a6bfdf" stroke="#FFFFFF"></path><path d="M1391.3 0L1162 0L1211 117.3Z" fill="#b7cadd" stroke="#FFFFFF"></path><path d="M920.3 929.3L1089.7 923.3L989.3 827Z" fill="#b3c8dd" stroke="#FFFFFF"></path><path d="M1210 857L1337.3 759L1170 632.7Z" fill="#a3bddf" stroke="#FFFFFF"></path><path d="M1409.7 428L1401.3 221.7L1211 222.7Z" fill="#a3bddf" stroke="#FFFFFF"></path><path d="M1368.3 196.3L1433.7 81.3L1211 117.3Z" fill="#b3c8dd" stroke="#FFFFFF"></path><path d="M447 781L559.3 776L531.3 630.7Z" fill="#b7cadd" stroke="#FFFFFF"></path><path d="M464 525.3L350 668.7L474.3 586.3Z" fill="#a0bbdf" stroke="#FFFFFF"></path><path d="M447 781L530.3 867.3L559.3 776Z" fill="#a9c1df" stroke="#FFFFFF"></path><path d="M501.3 366L415 470L464 525.3Z" fill="#b3c8dd" stroke="#FFFFFF"></path><path d="M263.7 300.7L415 470L501.3 366Z" fill="#a0bbdf" stroke="#FFFFFF"></path><path d="M1425.7 732L1461.7 601.7L1363.3 701.7Z" fill="#a9c1df" stroke="#FFFFFF"></path><path d="M1363.3 701.7L1461.7 601.7L1390.3 488.3Z" fill="#a0bbdf" stroke="#FFFFFF"></path><path d="M1406.3 464L1607 370L1409.7 428Z" fill="#98b4e0" stroke="#FFFFFF"></path><path d="M1409.7 428L1459.7 238.7L1401.3 221.7Z" fill="#9bb6e0" stroke="#FFFFFF"></path><path d="M544.3 65.3L474 191.7L600.7 125.3Z" fill="#a3bddf" stroke="#FFFFFF"></path><path d="M600.7 125.3L474 191.7L565.3 269.7Z" fill="#b7cadd" stroke="#FFFFFF"></path><path d="M474 191.7L466 200.3L565.3 269.7Z" fill="#a0bbdf" stroke="#FFFFFF"></path><path d="M1607 370L1459.7 238.7L1409.7 428Z" fill="#b3c8dd" stroke="#FFFFFF"></path><path d="M1401.3 221.7L1433.7 81.3L1368.3 196.3Z" fill="#acc4de" stroke="#FFFFFF"></path><path d="M826 0L621.7 0L600.7 125.3Z" fill="#9db8e0" stroke="#FFFFFF"></path><path d="M474 191.7L299.7 66.3L466 200.3Z" fill="#a9c1df" stroke="#FFFFFF"></path><path d="M621.7 0L544.3 65.3L600.7 125.3Z" fill="#a6bfdf" stroke="#FFFFFF"></path><path d="M1337.3 759L1425.7 732L1363.3 701.7Z" fill="#98b4e0" stroke="#FFFFFF"></path><path d="M1429.7 984.3L1425.7 732L1337.3 759Z" fill="#9db8e0" stroke="#FFFFFF"></path><path d="M717.7 966.3L820 853L709.7 858Z" fill="#b7cadd" stroke="#FFFFFF"></path><path d="M717.7 966.3L776 988.3L820 853Z" fill="#b0c6de" stroke="#FFFFFF"></path><path d="M920.3 929.3L972.3 1029.7L1089.7 923.3Z" fill="#b7cadd" stroke="#FFFFFF"></path><path d="M530.3 867.3L717.7 966.3L709.7 858Z" fill="#a6bfdf" stroke="#FFFFFF"></path><path d="M1089.7 923.3L1220 949.3L1210 857Z" fill="#b3c8dd" stroke="#FFFFFF"></path><path d="M1210 857L1288.3 964.3L1337.3 759Z" fill="#b0c6de" stroke="#FFFFFF"></path><path d="M1095.7 1080.7L1220 949.3L1089.7 923.3Z" fill="#a0bbdf" stroke="#FFFFFF"></path><path d="M807 1028.7L972.3 1029.7L920.3 929.3Z" fill="#a6bfdf" stroke="#FFFFFF"></path><path d="M447 781L531.3 630.7L350 668.7Z" fill="#a9c1df" stroke="#FFFFFF"></path><path d="M559.3 776L530.3 867.3L709.7 858Z" fill="#acc4de" stroke="#FFFFFF"></path><path d="M717.7 966.3L807 1028.7L776 988.3Z" fill="#a3bddf" stroke="#FFFFFF"></path><path d="M776 988.3L807 1028.7L920.3 929.3Z" fill="#98b4e0" stroke="#FFFFFF"></path><path d="M607.7 1093.7L807 1028.7L717.7 966.3Z" fill="#b0c6de" stroke="#FFFFFF"></path><path d="M350 668.7L531.3 630.7L474.3 586.3Z" fill="#a6bfdf" stroke="#FFFFFF"></path><path d="M1459.7 238.7L1433.7 81.3L1401.3 221.7Z" fill="#9db8e0" stroke="#FFFFFF"></path><path d="M1265 1077.7L1288.3 964.3L1220 949.3Z" fill="#a6bfdf" stroke="#FFFFFF"></path><path d="M1220 949.3L1288.3 964.3L1210 857Z" fill="#98b4e0" stroke="#FFFFFF"></path><path d="M1615 618.7L1553 601.3L1585 788Z" fill="#a9c1df" stroke="#FFFFFF"></path><path d="M1425.7 732L1553 601.3L1461.7 601.7Z" fill="#98b4e0" stroke="#FFFFFF"></path><path d="M1461.7 601.7L1553 601.3L1406.3 464Z" fill="#a6bfdf" stroke="#FFFFFF"></path><path d="M1671 105.3L1477.7 0L1433.7 81.3Z" fill="#b3c8dd" stroke="#FFFFFF"></path><path d="M1433.7 81.3L1391.3 0L1211 117.3Z" fill="#acc4de" stroke="#FFFFFF"></path><path d="M263.7 552.3L464 525.3L415 470Z" fill="#9bb6e0" stroke="#FFFFFF"></path><path d="M263.7 552.3L350 668.7L464 525.3Z" fill="#acc4de" stroke="#FFFFFF"></path><path d="M998.7 1200L1095.7 1080.7L972.3 1029.7Z" fill="#a9c1df" stroke="#FFFFFF"></path><path d="M972.3 1029.7L1095.7 1080.7L1089.7 923.3Z" fill="#a0bbdf" stroke="#FFFFFF"></path><path d="M544.3 65.3L471.3 0L474 191.7Z" fill="#b7cadd" stroke="#FFFFFF"></path><path d="M200.7 361L263.7 552.3L415 470Z" fill="#98b4e0" stroke="#FFFFFF"></path><path d="M621.7 0L471.3 0L544.3 65.3Z" fill="#9bb6e0" stroke="#FFFFFF"></path><path d="M1553 601.3L1607 370L1406.3 464Z" fill="#acc4de" stroke="#FFFFFF"></path><path d="M1433.7 81.3L1477.7 0L1391.3 0Z" fill="#b0c6de" stroke="#FFFFFF"></path><path d="M1585 788L1553 601.3L1425.7 732Z" fill="#b0c6de" stroke="#FFFFFF"></path><path d="M1553 601.3L1615 618.7L1607 370Z" fill="#a0bbdf" stroke="#FFFFFF"></path><path d="M263.7 300.7L501.3 366L466 200.3Z" fill="#a6bfdf" stroke="#FFFFFF"></path><path d="M1657 192.7L1433.7 81.3L1459.7 238.7Z" fill="#b0c6de" stroke="#FFFFFF"></path><path d="M299.7 66.3L263.7 300.7L466 200.3Z" fill="#a6bfdf" stroke="#FFFFFF"></path><path d="M1095.7 1080.7L1265 1077.7L1220 949.3Z" fill="#9bb6e0" stroke="#FFFFFF"></path><path d="M1288.3 964.3L1429.7 984.3L1337.3 759Z" fill="#a3bddf" stroke="#FFFFFF"></path><path d="M1369.3 1049.7L1429.7 984.3L1288.3 964.3Z" fill="#acc4de" stroke="#FFFFFF"></path><path d="M1429.7 984.3L1585 788L1425.7 732Z" fill="#a6bfdf" stroke="#FFFFFF"></path><path d="M350 668.7L292.7 770L447 781Z" fill="#b7cadd" stroke="#FFFFFF"></path><path d="M447 781L435 1002.7L530.3 867.3Z" fill="#a3bddf" stroke="#FFFFFF"></path><path d="M530.3 867.3L607.7 1093.7L717.7 966.3Z" fill="#b3c8dd" stroke="#FFFFFF"></path><path d="M209.7 673.7L292.7 770L350 668.7Z" fill="#9bb6e0" stroke="#FFFFFF"></path><path d="M435 1002.7L607.7 1093.7L530.3 867.3Z" fill="#a6bfdf" stroke="#FFFFFF"></path><path d="M841 1200L942.3 1200L972.3 1029.7Z" fill="#a6bfdf" stroke="#FFFFFF"></path><path d="M1095.7 1080.7L1131 1200L1265 1077.7Z" fill="#a0bbdf" stroke="#FFFFFF"></path><path d="M1265 1077.7L1369.3 1049.7L1288.3 964.3Z" fill="#a9c1df" stroke="#FFFFFF"></path><path d="M471.3 0L299.7 66.3L474 191.7Z" fill="#a3bddf" stroke="#FFFFFF"></path><path d="M148.3 253.7L200.7 361L263.7 300.7Z" fill="#a9c1df" stroke="#FFFFFF"></path><path d="M263.7 300.7L200.7 361L415 470Z" fill="#98b4e0" stroke="#FFFFFF"></path><path d="M263.7 552.3L209.7 673.7L350 668.7Z" fill="#a3bddf" stroke="#FFFFFF"></path><path d="M1607 370L1657 192.7L1459.7 238.7Z" fill="#b0c6de" stroke="#FFFFFF"></path><path d="M1757.3 319.7L1657 192.7L1607 370Z" fill="#98b4e0" stroke="#FFFFFF"></path><path d="M841 1200L972.3 1029.7L807 1028.7Z" fill="#b7cadd" stroke="#FFFFFF"></path><path d="M1392.3 1200L1463.7 1106.7L1369.3 1049.7Z" fill="#b3c8dd" stroke="#FFFFFF"></path><path d="M942.3 1200L998.7 1200L972.3 1029.7Z" fill="#a3bddf" stroke="#FFFFFF"></path><path d="M336 992.3L435 1002.7L447 781Z" fill="#acc4de" stroke="#FFFFFF"></path><path d="M471.3 0L335 0L299.7 66.3Z" fill="#a9c1df" stroke="#FFFFFF"></path><path d="M708.7 1200L841 1200L807 1028.7Z" fill="#b3c8dd" stroke="#FFFFFF"></path><path d="M173.3 656.7L209.7 673.7L263.7 552.3Z" fill="#a3bddf" stroke="#FFFFFF"></path><path d="M292.7 770L336 992.3L447 781Z" fill="#a9c1df" stroke="#FFFFFF"></path><path d="M1708.3 750L1706.3 607.7L1615 618.7Z" fill="#acc4de" stroke="#FFFFFF"></path><path d="M1615 618.7L1712.3 586.3L1607 370Z" fill="#b7cadd" stroke="#FFFFFF"></path><path d="M998.7 1200L1131 1200L1095.7 1080.7Z" fill="#a0bbdf" stroke="#FFFFFF"></path><path d="M1706.3 607.7L1712.3 586.3L1615 618.7Z" fill="#b7cadd" stroke="#FFFFFF"></path><path d="M148.3 253.7L163.3 405L200.7 361Z" fill="#a0bbdf" stroke="#FFFFFF"></path><path d="M200.7 361L163.3 405L263.7 552.3Z" fill="#a6bfdf" stroke="#FFFFFF"></path><path d="M335 0L299.7 0L299.7 66.3Z" fill="#9bb6e0" stroke="#FFFFFF"></path><path d="M299.7 66.3L148.3 253.7L263.7 300.7Z" fill="#a6bfdf" stroke="#FFFFFF"></path><path d="M585.3 1200L708.7 1200L607.7 1093.7Z" fill="#acc4de" stroke="#FFFFFF"></path><path d="M607.7 1093.7L708.7 1200L807 1028.7Z" fill="#9bb6e0" stroke="#FFFFFF"></path><path d="M1712.3 586.3L1743.3 401L1607 370Z" fill="#b0c6de" stroke="#FFFFFF"></path><path d="M1758.3 160.3L1671 105.3L1657 192.7Z" fill="#acc4de" stroke="#FFFFFF"></path><path d="M1657 192.7L1671 105.3L1433.7 81.3Z" fill="#a6bfdf" stroke="#FFFFFF"></path><path d="M72.3 538.3L173.3 656.7L263.7 552.3Z" fill="#a6bfdf" stroke="#FFFFFF"></path><path d="M130.3 770L223.7 894.3L292.7 770Z" fill="#a9c1df" stroke="#FFFFFF"></path><path d="M1898.7 622.7L1849.7 479.3L1712.3 586.3Z" fill="#b0c6de" stroke="#FFFFFF"></path><path d="M1849.7 479.3L1813.7 363L1743.3 401Z" fill="#98b4e0" stroke="#FFFFFF"></path><path d="M1585 788L1708.3 750L1615 618.7Z" fill="#b7cadd" stroke="#FFFFFF"></path><path d="M1755.3 938.3L1708.3 750L1585 788Z" fill="#9db8e0" stroke="#FFFFFF"></path><path d="M1611 1047.7L1585 788L1429.7 984.3Z" fill="#9bb6e0" stroke="#FFFFFF"></path><path d="M1813.7 363L1757.3 319.7L1743.3 401Z" fill="#98b4e0" stroke="#FFFFFF"></path><path d="M1743.3 401L1757.3 319.7L1607 370Z" fill="#9bb6e0" stroke="#FFFFFF"></path><path d="M223.7 894.3L336 992.3L292.7 770Z" fill="#9bb6e0" stroke="#FFFFFF"></path><path d="M435 1002.7L478.3 1120.7L607.7 1093.7Z" fill="#9bb6e0" stroke="#FFFFFF"></path><path d="M336 992.3L478.3 1120.7L435 1002.7Z" fill="#b0c6de" stroke="#FFFFFF"></path><path d="M61.3 160.3L148.3 253.7L299.7 66.3Z" fill="#a6bfdf" stroke="#FFFFFF"></path><path d="M0 660.7L130.3 770L173.3 656.7Z" fill="#a0bbdf" stroke="#FFFFFF"></path><path d="M478.3 1120.7L585.3 1200L607.7 1093.7Z" fill="#a6bfdf" stroke="#FFFFFF"></path><path d="M1392.3 1200L1369.3 1049.7L1265 1077.7Z" fill="#a6bfdf" stroke="#FFFFFF"></path><path d="M1369.3 1049.7L1463.7 1106.7L1429.7 984.3Z" fill="#b3c8dd" stroke="#FFFFFF"></path><path d="M1675.3 0L1663 0L1671 105.3Z" fill="#acc4de" stroke="#FFFFFF"></path><path d="M1671 105.3L1663 0L1477.7 0Z" fill="#b3c8dd" stroke="#FFFFFF"></path><path d="M336 992.3L444 1200L478.3 1120.7Z" fill="#a9c1df" stroke="#FFFFFF"></path><path d="M130.3 770L292.7 770L209.7 673.7Z" fill="#9db8e0" stroke="#FFFFFF"></path><path d="M1758.3 160.3L1675.3 0L1671 105.3Z" fill="#b3c8dd" stroke="#FFFFFF"></path><path d="M1757.3 319.7L1758.3 160.3L1657 192.7Z" fill="#a9c1df" stroke="#FFFFFF"></path><path d="M1849.7 479.3L1743.3 401L1712.3 586.3Z" fill="#b0c6de" stroke="#FFFFFF"></path><path d="M1757.3 319.7L1874.7 213.7L1758.3 160.3Z" fill="#9db8e0" stroke="#FFFFFF"></path><path d="M223.7 894.3L277.7 1002.7L336 992.3Z" fill="#a3bddf" stroke="#FFFFFF"></path><path d="M478.3 1120.7L444 1200L585.3 1200Z" fill="#98b4e0" stroke="#FFFFFF"></path><path d="M1131 1200L1392.3 1200L1265 1077.7Z" fill="#9bb6e0" stroke="#FFFFFF"></path><path d="M72.3 538.3L263.7 552.3L163.3 405Z" fill="#a6bfdf" stroke="#FFFFFF"></path><path d="M173.3 656.7L130.3 770L209.7 673.7Z" fill="#a0bbdf" stroke="#FFFFFF"></path><path d="M223.7 894.3L133.3 1044.7L277.7 1002.7Z" fill="#9bb6e0" stroke="#FFFFFF"></path><path d="M0 424L72.3 538.3L163.3 405Z" fill="#a6bfdf" stroke="#FFFFFF"></path><path d="M299.7 0L174.3 0L299.7 66.3Z" fill="#98b4e0" stroke="#FFFFFF"></path><path d="M0 290.7L0 424L163.3 405Z" fill="#b3c8dd" stroke="#FFFFFF"></path><path d="M1392.3 1200L1429.7 1200L1463.7 1106.7Z" fill="#b0c6de" stroke="#FFFFFF"></path><path d="M1463.7 1106.7L1611 1047.7L1429.7 984.3Z" fill="#b3c8dd" stroke="#FFFFFF"></path><path d="M1583 1200L1611 1047.7L1463.7 1106.7Z" fill="#98b4e0" stroke="#FFFFFF"></path><path d="M1898.7 622.7L1712.3 586.3L1706.3 607.7Z" fill="#9db8e0" stroke="#FFFFFF"></path><path d="M1813.7 363L1874.7 213.7L1757.3 319.7Z" fill="#98b4e0" stroke="#FFFFFF"></path><path d="M1898.7 622.7L1706.3 607.7L1708.3 750Z" fill="#a9c1df" stroke="#FFFFFF"></path><path d="M277.7 1002.7L444 1200L336 992.3Z" fill="#b3c8dd" stroke="#FFFFFF"></path><path d="M1611 1047.7L1672 993.3L1585 788Z" fill="#a9c1df" stroke="#FFFFFF"></path><path d="M174.3 0L61.3 160.3L299.7 66.3Z" fill="#9bb6e0" stroke="#FFFFFF"></path><path d="M1808.7 1001.7L1755.3 938.3L1672 993.3Z" fill="#acc4de" stroke="#FFFFFF"></path><path d="M1672 993.3L1755.3 938.3L1585 788Z" fill="#b3c8dd" stroke="#FFFFFF"></path><path d="M1808.7 1001.7L1672 993.3L1757.3 1132.7Z" fill="#acc4de" stroke="#FFFFFF"></path><path d="M0 290.7L163.3 405L148.3 253.7Z" fill="#9bb6e0" stroke="#FFFFFF"></path><path d="M72.3 538.3L0 660.7L173.3 656.7Z" fill="#98b4e0" stroke="#FFFFFF"></path><path d="M0 424L0 531.3L72.3 538.3Z" fill="#b0c6de" stroke="#FFFFFF"></path><path d="M130.3 770L90.3 862.3L223.7 894.3Z" fill="#a6bfdf" stroke="#FFFFFF"></path><path d="M277.7 1002.7L196.7 1200L444 1200Z" fill="#a6bfdf" stroke="#FFFFFF"></path><path d="M0 843L90.3 862.3L130.3 770Z" fill="#9db8e0" stroke="#FFFFFF"></path><path d="M1927.7 207.3L1874.7 213.7L2000 309.7Z" fill="#b7cadd" stroke="#FFFFFF"></path><path d="M1758.3 160.3L1859.7 0L1675.3 0Z" fill="#a6bfdf" stroke="#FFFFFF"></path><path d="M61.3 160.3L0 290.7L148.3 253.7Z" fill="#a9c1df" stroke="#FFFFFF"></path><path d="M1875.7 810L1898.7 622.7L1708.3 750Z" fill="#a3bddf" stroke="#FFFFFF"></path><path d="M2000 309.7L1874.7 213.7L1813.7 363Z" fill="#9db8e0" stroke="#FFFFFF"></path><path d="M1755.3 938.3L1803.7 897.3L1708.3 750Z" fill="#a0bbdf" stroke="#FFFFFF"></path><path d="M0 531.3L0 660.7L72.3 538.3Z" fill="#acc4de" stroke="#FFFFFF"></path><path d="M1429.7 1200L1583 1200L1463.7 1106.7Z" fill="#a6bfdf" stroke="#FFFFFF"></path><path d="M1755.3 938.3L1808.7 1001.7L1803.7 897.3Z" fill="#98b4e0" stroke="#FFFFFF"></path><path d="M2000 972.3L1875.7 810L1803.7 897.3Z" fill="#b0c6de" stroke="#FFFFFF"></path><path d="M1803.7 897.3L1875.7 810L1708.3 750Z" fill="#a3bddf" stroke="#FFFFFF"></path><path d="M2000 391L1813.7 363L1849.7 479.3Z" fill="#a9c1df" stroke="#FFFFFF"></path><path d="M1874.7 213.7L1859.7 0L1758.3 160.3Z" fill="#a9c1df" stroke="#FFFFFF"></path><path d="M0 921.3L133.3 1044.7L90.3 862.3Z" fill="#a6bfdf" stroke="#FFFFFF"></path><path d="M90.3 862.3L133.3 1044.7L223.7 894.3Z" fill="#98b4e0" stroke="#FFFFFF"></path><path d="M1927.7 207.3L1859.7 0L1874.7 213.7Z" fill="#a0bbdf" stroke="#FFFFFF"></path><path d="M174.3 0L0 70.3L61.3 160.3Z" fill="#a6bfdf" stroke="#FFFFFF"></path><path d="M61.3 160.3L0 70.3L0 290.7Z" fill="#9bb6e0" stroke="#FFFFFF"></path><path d="M1757.3 1132.7L1672 993.3L1611 1047.7Z" fill="#98b4e0" stroke="#FFFFFF"></path><path d="M0 660.7L0 843L130.3 770Z" fill="#98b4e0" stroke="#FFFFFF"></path><path d="M174.3 0L0 0L0 70.3Z" fill="#acc4de" stroke="#FFFFFF"></path><path d="M2000 591.3L1849.7 479.3L1898.7 622.7Z" fill="#9bb6e0" stroke="#FFFFFF"></path><path d="M2000 591.3L2000 391L1849.7 479.3Z" fill="#acc4de" stroke="#FFFFFF"></path><path d="M1927.7 207.3L2000 166.3L1859.7 0Z" fill="#a0bbdf" stroke="#FFFFFF"></path><path d="M0 843L0 921.3L90.3 862.3Z" fill="#a9c1df" stroke="#FFFFFF"></path><path d="M2000 391L2000 309.7L1813.7 363Z" fill="#9db8e0" stroke="#FFFFFF"></path><path d="M1729.3 1200L1757.3 1132.7L1611 1047.7Z" fill="#a9c1df" stroke="#FFFFFF"></path><path d="M2000 676.7L2000 591.3L1898.7 622.7Z" fill="#b0c6de" stroke="#FFFFFF"></path><path d="M2000 676.7L1898.7 622.7L1875.7 810Z" fill="#b7cadd" stroke="#FFFFFF"></path><path d="M2000 676.7L1875.7 810L2000 772Z" fill="#b0c6de" stroke="#FFFFFF"></path><path d="M69.3 1200L196.7 1200L133.3 1044.7Z" fill="#b0c6de" stroke="#FFFFFF"></path><path d="M133.3 1044.7L196.7 1200L277.7 1002.7Z" fill="#acc4de" stroke="#FFFFFF"></path><path d="M2000 772L1875.7 810L2000 972.3Z" fill="#b7cadd" stroke="#FFFFFF"></path><path d="M1583 1200L1729.3 1200L1611 1047.7Z" fill="#a9c1df" stroke="#FFFFFF"></path><path d="M2000 972.3L1803.7 897.3L1808.7 1001.7Z" fill="#a3bddf" stroke="#FFFFFF"></path><path d="M2000 309.7L2000 166.3L1927.7 207.3Z" fill="#9db8e0" stroke="#FFFFFF"></path><path d="M2000 972.3L1808.7 1001.7L2000 1039.7Z" fill="#acc4de" stroke="#FFFFFF"></path><path d="M0 921.3L0 1055.7L133.3 1044.7Z" fill="#b7cadd" stroke="#FFFFFF"></path><path d="M2000 166.3L2000 0L1859.7 0Z" fill="#acc4de" stroke="#FFFFFF"></path><path d="M0 1055.7L69.3 1200L133.3 1044.7Z" fill="#acc4de" stroke="#FFFFFF"></path><path d="M2000 1039.7L1808.7 1001.7L1938.7 1200Z" fill="#a9c1df" stroke="#FFFFFF"></path><path d="M1938.7 1200L1808.7 1001.7L1757.3 1132.7Z" fill="#acc4de" stroke="#FFFFFF"></path><path d="M0 1055.7L0 1200L69.3 1200Z" fill="#98b4e0" stroke="#FFFFFF"></path><path d="M1729.3 1200L1938.7 1200L1757.3 1132.7Z" fill="#a3bddf" stroke="#FFFFFF"></path><path d="M1938.7 1200L2000 1200L2000 1039.7Z" fill="#9bb6e0" stroke="#FFFFFF"></path></g></svg>