<svg id="visual" viewBox="0 0 900 600" width="900" height="600" xmlns="http://www.w3.org/2000/svg" xmlns:xlink="http://www.w3.org/1999/xlink" version="1.1"><rect x="0" y="0" width="900" height="600" fill="#e4d5c7"></rect><g transform="translate(340.15828335908964 280.19678795442906)"><path d="M277.9 -400.6C403 -352 576.7 -347.4 622.8 -275.8C668.9 -204.2 587.3 -65.8 527.1 47.6C466.9 160.9 428.1 249.1 353.5 269.9C278.8 290.8 168.5 244.4 67.4 311.6C-33.8 378.8 -125.6 559.8 -178.8 564.5C-231.9 569.1 -246.3 397.5 -256.6 280.8C-266.9 164 -273 102.1 -314.7 25.5C-356.5 -51.1 -433.9 -142.3 -413.2 -189.2C-392.5 -236.1 -273.8 -238.8 -188.6 -305.5C-103.4 -372.3 -51.7 -503.1 12.3 -522.4C76.4 -541.6 152.8 -449.1 277.9 -400.6" fill="none" stroke="#4561bf" stroke-width="6"></path></g></svg>